<svg id="Layer_1" data-name="Layer 1" xmlns="http://www.w3.org/2000/svg" viewBox="0 0 841.89 398.71"><defs><style>.cls-1{fill:none;}.cls-2{fill:#231f20;}</style></defs><rect class="cls-1" x="221.37" y="-221.59" width="398.71" height="841.89" transform="translate(620.3 -221.37) rotate(90)"/><polygon class="cls-2" points="415.51 225.45 415.51 225.53 415.55 225.53 415.51 225.45"/><polygon class="cls-2" points="415.51 225.45 415.51 225.53 415.55 225.53 415.51 225.45"/><path class="cls-2" d="M460,93.67a14.72,14.72,0,0,1-8.82,13.75c-2.65,1.14-8,1.31-10.94,1.31h-.07a12,12,0,0,0-.3,2.69,10.21,10.21,0,0,0,.38,2.76c9.77,0,15.82,1.5,19.73,8.92a25.37,25.37,0,0,1,2.86,12.31v4h6.81v-3.88a32.42,32.42,0,0,0-2.83-13.27,21.49,21.49,0,0,0-9.27-9.7l-2.06-.94,2.06-.93c6.5-3,10.38-9.63,10.38-17.84,0-12-7.16-18-21.26-18H426.12v64.6h7.45V81.11H445.8C455.1,81.11,460,85.45,460,93.67Z" transform="translate(0.22)"/><path class="cls-2" d="M525.08,137.31l.59-.21V108.48a5.63,5.63,0,0,0-3.13-.74,5.75,5.75,0,0,0-3.17.74v24.15l-.85.15a71,71,0,0,1-12.74,1.14c-15.89,0-25-9.82-25-26.94,0-13.34,6.52-27.6,24.83-27.6a69.65,69.65,0,0,1,16.23,2.14A5.25,5.25,0,0,0,523.19,79a5.34,5.34,0,0,0,0-3.42,59.84,59.84,0,0,0-17.67-2.4c-19,0-31.33,13.26-31.33,33.79s11.46,32.9,30.65,33.25h0C512.81,140.23,519.8,139.22,525.08,137.31Z" transform="translate(0.22)"/><path class="cls-2" d="M563.68,140.49h.64c8.5,0,12.49-1.65,14.88-2.65l1.14-.47c.14-.26.46-1.15-.15-3a6,6,0,0,0-1.49-2.68l-1.58.49a38.37,38.37,0,0,1-12.8,2c-14.5-.1-23.46-8.7-24.62-23.57l-.08-1.1H560l.27-.33a4.39,4.39,0,0,0,.73-2.68,4.25,4.25,0,0,0-.73-2.68l-.27-.34H539.73l.14-1.16c.87-6.82,5-22.68,24.54-22.68a38,38,0,0,1,12.66,2l1.26.38a6.77,6.77,0,0,0,1.39-2.51,6.35,6.35,0,0,0,.26-3.19l-.91-.37c-2.12-.88-6.07-2.49-14.75-2.49-19,0-31.33,13.25-31.33,33.79S544.46,140.15,563.68,140.49Z" transform="translate(0.22)"/><path class="cls-2" d="M398.65,140.49h.65c8.49,0,12.49-1.65,14.87-2.65l1.15-.47c.13-.26.44-1.15-.16-3a6,6,0,0,0-1.48-2.68l-1.58.49a38.43,38.43,0,0,1-12.8,2c-14.5-.1-23.47-8.7-24.62-23.57l-.09-1.1H395l.26-.33a5.32,5.32,0,0,0,0-5.36l-.27-.34H374.7l.15-1.16c.86-6.82,5-22.68,24.53-22.68a38.06,38.06,0,0,1,12.67,2l1.25.38a6.77,6.77,0,0,0,1.39-2.51,6.26,6.26,0,0,0,.27-3.19l-.91-.37c-2.13-.88-6.08-2.49-14.76-2.49-19,0-31.33,13.25-31.33,33.79S379.44,140.15,398.65,140.49Z" transform="translate(0.22)"/><path class="cls-2" d="M363.35,120.81c0-10.27-6.6-14.15-10.53-15.56L351,104.6l1.61-1.15a15.19,15.19,0,0,0,6.54-12.66c0-3.75-1.33-16-18.47-16H323.72v64.56h17.74C357.62,139.36,363.35,129.37,363.35,120.81Zm-33.24-39.9h10.53c10.82,0,12,6.91,12,9.88,0,6.4-4.29,11-10.93,11.62-1.94.14-6.76.63-10.12,2.22l-1.47.69Zm0,32.48c0-4.82,10-5,11.15-5h.48c9.36,0,14.94,4.63,14.94,12.38s-5.83,12.35-15.22,12.35H330.11Z" transform="translate(0.22)"/><path class="cls-2" d="M635.05,139.36v-65a11.7,11.7,0,0,0-3.13-.35,11.5,11.5,0,0,0-3.09.35v54.85L594.75,74.43a13.3,13.3,0,0,0-4.11-.38,17.31,17.31,0,0,0-3.66.27v65h6.22V84.25l34.47,55.11Z" transform="translate(0.22)"/><path class="cls-2" d="M346.34,161.34c-17.63,0-29.46,13.46-29.46,33.51s11.83,33.53,29.46,33.53,29.56-13.47,29.56-33.53S364,161.34,346.34,161.34Zm0,60.83c-15.81,0-22.89-13.72-22.89-27.32s7.08-27.31,22.89-27.31,23,13.72,23,27.31S362.21,222.17,346.34,222.17Z" transform="translate(0.22)"/><path class="cls-2" d="M389.58,194.52l-1.56,1V184.14c0-7.82,6.64-15.49,13.41-15.49h17.7a8,8,0,0,0,.47-3,9.06,9.06,0,0,0-.49-3.14H401.94c-7.52,0-20.23,4.86-20.23,23.11V227.1H388V207.52c0-6.9,6.46-10.12,20.33-10.12h1.3a9,9,0,0,0,.46-3.19,7.71,7.71,0,0,0-.42-2.92h-1.34C404.65,191.29,394.8,191.29,389.58,194.52Z" transform="translate(0.22)"/><path class="cls-2" d="M429.41,194.49l-1.56,1V184.14c0-7.82,6.64-15.49,13.4-15.49h17.68a9.63,9.63,0,0,0,.42-3.16,8.58,8.58,0,0,0-.39-3h-17.2c-7.51,0-20.22,4.86-20.22,23.11V227.1h6.31V207.52c0-7,6.18-10.12,20.06-10.12h1.27a8.68,8.68,0,0,0,.6-3.1,8.1,8.1,0,0,0-.59-3h-1.28C443.92,191.29,434.57,191.29,429.41,194.49Z" transform="translate(0.22)"/><path class="cls-2" d="M658.72,162.21V227.1h6.39V162.21a10.47,10.47,0,0,0-3.19-.43A10.6,10.6,0,0,0,658.72,162.21Z" transform="translate(0.22)"/><path class="cls-2" d="M723.3,225.46l.59-.21V196.63a5.56,5.56,0,0,0-3.12-.74,5.65,5.65,0,0,0-3.18.75v24.14l-.84.15A72.12,72.12,0,0,1,704,222.07c-15.89,0-25-9.81-25-26.94,0-13.33,6.52-27.59,24.83-27.59a69.12,69.12,0,0,1,16.24,2.14,6.45,6.45,0,0,0,1.34-5.93,59.74,59.74,0,0,0-17.67-2.41c-19,0-31.32,13.26-31.32,33.79s11.45,32.9,30.65,33.25v0C711,228.38,718,227.37,723.3,225.46Z" transform="translate(0.22)"/><path class="cls-2" d="M487.24,228.38h.65c8.49,0,12.49-1.66,14.87-2.65l1.15-.47a4.13,4.13,0,0,0-.15-3,6.05,6.05,0,0,0-1.49-2.68l-1.59.48a38.3,38.3,0,0,1-12.79,2c-14.5-.09-23.47-8.68-24.62-23.56l-.09-1.11h20.38l.27-.33a4.38,4.38,0,0,0,.72-2.68,4.31,4.31,0,0,0-.72-2.68l-.27-.33H463.29l.15-1.15c.86-6.83,5-22.69,24.52-22.69a38,38,0,0,1,12.67,2l1.26.38a6.77,6.77,0,0,0,1.39-2.51,6.27,6.27,0,0,0,.27-3.19l-.91-.37c-2.13-.88-6.08-2.5-14.76-2.5-19,0-31.33,13.26-31.33,33.79S468,228,487.24,228.38Z" transform="translate(0.22)"/><path class="cls-2" d="M775.41,219.59l-1.58.48a38.43,38.43,0,0,1-12.8,2c-14.5-.09-23.46-8.68-24.62-23.56l-.08-1.11H756.7l.27-.33a5.28,5.28,0,0,0,0-5.36l-.27-.33H736.44l.14-1.15c.87-6.83,5-22.69,24.53-22.69a38,38,0,0,1,12.67,2l1.25.38a6.74,6.74,0,0,0,1.4-2.51,6.35,6.35,0,0,0,.26-3.19l-.91-.37c-2.12-.88-6.08-2.5-14.76-2.5-19,0-31.33,13.26-31.33,33.79s11.48,32.9,30.7,33.25H761c8.49,0,12.48-1.66,14.86-2.65l1.15-.47c.13-.26.45-1.15-.15-3A6,6,0,0,0,775.41,219.59Z" transform="translate(0.22)"/><polygon class="cls-2" points="584.33 227.1 590.81 227.1 590.81 168.42 611.33 168.42 611.33 162.31 563.9 162.31 563.9 168.42 584.33 168.42 584.33 227.1"/><path class="cls-2" d="M552,162.13V217l-34.09-54.81a12.71,12.71,0,0,0-4.11-.39,17.31,17.31,0,0,0-3.66.27v65h6.22V172L550.8,227.1h7.38v-65a12.17,12.17,0,0,0-3.14-.35A11.38,11.38,0,0,0,552,162.13Z" transform="translate(0.22)"/><path class="cls-2" d="M652.17,221H624V162.21a11.77,11.77,0,0,0-3.34-.43,11.54,11.54,0,0,0-3,.34v65h34.52Z" transform="translate(0.22)"/><path class="cls-2" d="M352.84,280.36,351,279.7l1.61-1.14a15.22,15.22,0,0,0,6.54-12.66c0-3.76-1.33-16-18.47-16H323.74v64.56h17.74c16.16,0,21.89-10,21.89-18.56C363.37,285.65,356.77,281.76,352.84,280.36ZM330.13,256h10.53c10.83,0,12,6.91,12,9.89,0,6.4-4.28,11-10.92,11.62-2,.13-6.77.62-10.13,2.22l-1.47.69Zm11.35,52.26H330.13V288.49c0-4.81,10-4.95,11.15-4.95h.48c9.36,0,14.95,4.62,14.95,12.37S350.87,308.27,341.48,308.27Z" transform="translate(0.22)"/><path class="cls-2" d="M417,280.36l-1.86-.67,1.61-1.13a15.22,15.22,0,0,0,6.54-12.66c0-3.76-1.33-16-18.48-16H387.85v64.56H405.6c16.14,0,21.88-10,21.88-18.56C427.48,285.65,420.88,281.77,417,280.36ZM394.24,256h10.52c10.84,0,12,6.91,12,9.89,0,6.4-4.29,11-10.93,11.62-1.94.13-6.76.62-10.12,2.22l-1.47.69Zm11.36,52.26H394.24V288.49c0-4.81,10-4.95,11.15-4.95h.48c9.35,0,14.94,4.62,14.94,12.37S415,308.27,405.6,308.27Z" transform="translate(0.22)"/><path class="cls-2" d="M522.1,248.79c-17.6,0-29.43,13.46-29.43,33.49s11.83,33.48,29.43,33.48,29.53-13.45,29.53-33.48S539.77,248.79,522.1,248.79Zm0,60.77c-15.79,0-22.86-13.7-22.86-27.28S506.31,255,522.1,255s23,13.7,23,27.29S538,309.56,522.1,309.56Z" transform="translate(0.22)"/><path class="cls-2" d="M650.71,249.77v64.7h6.39v-64.7a21.39,21.39,0,0,0-6.39,0Z" transform="translate(0.22)"/><path class="cls-2" d="M689.5,249.71c-1-.09-2.35-.18-3.82-.18a24.13,24.13,0,0,0-4,.28l-20.92,31.38v2.31l23.93,31h8.52L667.8,281.69Z" transform="translate(0.22)"/><polygon class="cls-2" points="550.48 256.14 570.89 256.14 570.89 314.5 577.36 314.5 577.36 256.14 597.85 256.14 597.85 250.04 550.48 250.04 550.48 256.14"/><path class="cls-2" d="M370.69,250v64.9h6.39V250a12.36,12.36,0,0,0-6.39,0Z" transform="translate(0.22)"/><path class="cls-2" d="M479.16,250v64.9h6.4V250a12.4,12.4,0,0,0-6.4,0Z" transform="translate(0.22)"/><path class="cls-2" d="M443.65,250a11.4,11.4,0,0,0-3.35-.44,11.12,11.12,0,0,0-3,.34v65h34.52v-6.13H443.65Z" transform="translate(0.22)"/><path class="cls-2" d="M642.2,307l-1.58.48a38.05,38.05,0,0,1-12.8,2c-14.5-.09-23.47-8.68-24.62-23.56l-.08-1.1h20.37l.27-.33a4.37,4.37,0,0,0,.72-2.67,4.32,4.32,0,0,0-.72-2.69l-.27-.33H603.23l.15-1.17c.86-6.81,5-22.68,24.52-22.68a38,38,0,0,1,12.68,2l1.25.37a7,7,0,0,0,1.39-2.5,6.35,6.35,0,0,0,.26-3.19l-.91-.38c-2.12-.88-6.07-2.5-14.76-2.5-19,0-31.33,13.27-31.33,33.8s11.48,32.9,30.7,33.25h.65c8.5,0,12.48-1.66,14.86-2.65l1.15-.48c.13-.26.45-1.15-.15-3A6,6,0,0,0,642.2,307Z" transform="translate(0.22)"/><path class="cls-2" d="M271.85,305.65a6,6,0,0,0-.18-1.62H70.19a5.89,5.89,0,0,0-.19,1.62,5.74,5.74,0,0,0,.19,1.64H271.67A5.85,5.85,0,0,0,271.85,305.65Z" transform="translate(0.22)"/><path class="cls-2" d="M241.85,295.11a6,6,0,0,0-.18-1.62H100.18a6,6,0,0,0-.18,1.62,6.43,6.43,0,0,0,.18,1.65H241.67A6.43,6.43,0,0,0,241.85,295.11Z" transform="translate(0.22)"/><path class="cls-2" d="M93.1,297.57H76.69l-.51-1.76a36.86,36.86,0,0,1,0-20.56l.51-1.76H93.1Zm-12.68-4.89H88.2v-14.3H80.42A32,32,0,0,0,80.42,292.68Z" transform="translate(0.22)"/><path class="cls-2" d="M215.69,182.52v96.84l-18.11-3.75V186.26l18.11-3.74m4.9-6-27.91,5.76V279.6l27.91,5.77V176.51Z" transform="translate(0.22)"/><path class="cls-2" d="M173.39,177.26v-.47a8.9,8.9,0,0,0-2.43-.28,9,9,0,0,0-2.47.28v.31h0V284.79h0v.31a9.59,9.59,0,0,0,2.47.27,9,9,0,0,0,2.43-.27v-.47h0V177.26Z" transform="translate(0.22)"/><path class="cls-2" d="M144.41,186.56v7.38H137v-7.38h7.38m1.63-1.63H135.4v10.64H146V184.93Z" transform="translate(0.22)"/><path class="cls-2" d="M160.15,204.61V212h-7.37v-7.37h7.37m1.63-1.64H151.14v10.65h10.64V203Z" transform="translate(0.22)"/><path class="cls-2" d="M144.41,222.66V230H137v-7.37h7.38M146,221H135.4v10.64H146V221Z" transform="translate(0.22)"/><path class="cls-2" d="M160.15,240.7v7.38h-7.37V240.7h7.37m1.63-1.63H151.14v10.64h10.64V239.07Z" transform="translate(0.22)"/><path class="cls-2" d="M144.41,258.75v7.38H137v-7.38h7.38m1.63-1.63H135.4v10.64H146V257.12Z" transform="translate(0.22)"/><path class="cls-2" d="M160.15,186.56v7.38h-7.37v-7.38h7.37m1.63-1.63H151.14v10.64h10.64V184.93Z" transform="translate(0.22)"/><path class="cls-2" d="M160.15,222.66V230h-7.37v-7.37h7.37m1.63-1.64H151.14v10.64h10.64V221Z" transform="translate(0.22)"/><path class="cls-2" d="M160.15,258.75v7.38h-7.37v-7.38h7.37m1.63-1.63H151.14v10.64h10.64V257.12Z" transform="translate(0.22)"/><path class="cls-2" d="M144.41,204.61V212H137v-7.37h7.38M146,203H135.4v10.65H146V203Z" transform="translate(0.22)"/><path class="cls-2" d="M144.41,240.7v7.38H137V240.7h7.38m1.63-1.63H135.4v10.64H146V239.07Z" transform="translate(0.22)"/><circle class="cls-2" cx="138.38" cy="165.62" r="2.82"/><circle class="cls-2" cx="145.67" cy="165.62" r="2.82"/><circle class="cls-2" cx="152.95" cy="165.62" r="2.82"/><circle class="cls-2" cx="160.24" cy="165.62" r="2.82"/><circle class="cls-2" cx="167.52" cy="165.62" r="2.82"/><circle class="cls-2" cx="174.8" cy="165.62" r="2.82"/><circle class="cls-2" cx="182.09" cy="165.62" r="2.82"/><circle class="cls-2" cx="189.37" cy="165.62" r="2.82"/><circle class="cls-2" cx="196.65" cy="165.62" r="2.82"/><circle class="cls-2" cx="203.94" cy="165.62" r="2.82"/><path class="cls-2" d="M220.59,166.09h0v-.17h0c-.09-17.55-12.51-30.13-22.93-37.61-11.38-8.15-23.62-12.6-26.72-12.6h0c-3.1,0-15.34,4.45-26.72,12.6-10.46,7.5-22.93,20.15-22.93,37.78V284.6h0V285a14.79,14.79,0,0,0,6.53,0v-.62h0V166.09c0-14.69,10.75-25.6,19.77-32.16,10.32-7.5,21.26-11.45,23.35-11.69,2.09.24,13,4.19,23.34,11.69,9,6.56,19.78,17.47,19.78,32.16v.46a12.1,12.1,0,0,0,3.24.36,12.76,12.76,0,0,0,3.29-.36v-.46Z" transform="translate(0.22)"/><path class="cls-2" d="M185.36,68.53" transform="translate(0.22)"/><path class="cls-2" d="M266.83,165.43c0-31.16-12.75-58-36.81-77.59a124,124,0,0,0-42.19-22.39c-.52-4.27-1.07-8.85-1.66-13.86l-.27-2.27-2.23-.52a55.64,55.64,0,0,0-12.73-1.48h0a55.54,55.54,0,0,0-12.72,1.47l-2.23.53-.27,2.27c-.59,5-1.14,9.59-1.67,13.86a124,124,0,0,0-42.18,22.39c-24.06,19.6-36.79,46.43-36.81,77.59h0v.94a18.71,18.71,0,0,0,4.93.54,18.15,18.15,0,0,0,4.87-.54v-.86c0-67.2,63.21-88.08,71.39-90.5,2,6.74,3.9,13.77,5.92,21.13l1,3.69,1.64.19a52.37,52.37,0,0,0,12.26,0l1.64-.19,1-3.74c2-7.35,3.95-14.36,5.91-21.08,8.18,2.42,71.39,23.3,71.39,90.5v.23h0v.63a18.71,18.71,0,0,0,4.93.54,18.15,18.15,0,0,0,4.87-.54v-.94ZM175,94.79l-.15.53a49.11,49.11,0,0,1-7.86,0l-.13-.48c-2.35-8.54-4.59-16.64-6.88-24.38.6-4.8,1.24-10,1.92-15.78a49.52,49.52,0,0,1,9-.83h0a49.63,49.63,0,0,1,9,.83c.68,5.78,1.32,11,1.92,15.78C179.59,78.18,177.36,86.26,175,94.79Z" transform="translate(0.22)"/><path class="cls-2" d="M76.23,172.64l-.51,1.76a41.59,41.59,0,0,0,0,23.3l.51,1.76h4.2A31.15,31.15,0,0,0,81,213a31.2,31.2,0,0,0,.17,16.74l.51,1.77h2v37h19V172.64ZM80,177.53H97.73v17H80A36.88,36.88,0,0,1,80,177.53Zm17.78,86.15H88.51V231.55h9.22Zm0-37H85.4a26.15,26.15,0,0,1,0-11.14H97.73Zm0-16H85.4a26.2,26.2,0,0,1,0-11.15H97.73Z" transform="translate(0.22)"/><path class="cls-2" d="M265.21,297.57h-16.4V273.49h16.4l.51,1.76a36.68,36.68,0,0,1,0,20.56Zm-11.51-4.89h7.78a32,32,0,0,0,0-14.3H253.7Z" transform="translate(0.22)"/><path class="cls-2" d="M266.19,174.4l-.51-1.76h-26.4v95.94h19v-37h2l.51-1.77a31.1,31.1,0,0,0,.17-16.74,31,31,0,0,0,.55-13.58h4.2l.51-1.76A41.77,41.77,0,0,0,266.19,174.4Zm-22,41.11h12.34a26.15,26.15,0,0,1,0,11.14H244.17Zm9.22,48.17h-9.22V231.55h9.22Zm3.11-53.07H244.17V199.46H256.5A26.2,26.2,0,0,1,256.5,210.61Zm5.45-16H244.17v-17H262A36.62,36.62,0,0,1,262,194.57Z" transform="translate(0.22)"/><path class="cls-2" d="M266.29,314.6H75.59a18.61,18.61,0,0,0-.55,4.94,19,19,0,0,0,.55,5h190.7a19,19,0,0,0,.55-5A18.61,18.61,0,0,0,266.29,314.6Z" transform="translate(0.22)"/><path class="cls-2" d="M171,74.35a5.82,5.82,0,1,1,5.81-5.82A5.82,5.82,0,0,1,171,74.35Zm0-9.67a3.86,3.86,0,1,0,3.86,3.85A3.86,3.86,0,0,0,171,64.68Z" transform="translate(0.22)"/></svg>